<?xml version="1.0" standalone="no"?>
<!DOCTYPE svg PUBLIC "-//W3C//DTD SVG 20010904//EN"
 "http://www.w3.org/TR/2001/REC-SVG-20010904/DTD/svg10.dtd">
<svg version="1.0" xmlns="http://www.w3.org/2000/svg"
 width="530.000000pt" height="530.000000pt" viewBox="0 0 530.000000 530.000000"
 preserveAspectRatio="xMidYMid meet">
<metadata>
Created by potrace 1.14, written by Peter Selinger 2001-2017
</metadata>
<g transform="translate(0.000000,530.000000) scale(0.100000,-0.100000)"
fill="#000000" stroke="none">
<path d="M3195 5238 c-2 -7 -6 -24 -9 -38 -2 -14 -24 -70 -49 -125 -72 -163
-73 -165 -55 -315 3 -22 0 -25 -27 -23 -16 1 -56 9 -88 17 -49 12 -145 14
-615 9 -306 -2 -611 -5 -677 -5 -160 -2 -193 5 -201 40 -6 25 -57 121 -97 180
-9 15 -24 41 -32 58 -8 18 -27 42 -42 55 -16 13 -39 40 -53 59 -25 35 -80 89
-92 90 -3 0 -21 -23 -40 -52 -18 -28 -44 -68 -58 -88 -68 -102 -90 -136 -90
-146 0 -6 -6 -24 -14 -40 -8 -16 -16 -42 -18 -59 -4 -28 -17 -79 -38 -150 -14
-46 10 -264 41 -383 10 -36 10 -45 -2 -53 -23 -14 -85 7 -204 68 -94 48 -149
62 -228 57 -87 -5 -163 -40 -173 -79 -6 -24 2 -141 11 -155 2 -4 6 -29 9 -56
14 -147 85 -348 181 -509 68 -115 278 -327 400 -406 65 -42 129 -99 145 -128
7 -14 6 -22 -5 -31 -16 -13 -48 -15 -182 -10 -69 3 -97 0 -115 -12 -12 -8 -34
-18 -48 -21 -31 -9 -120 -88 -120 -108 0 -8 9 -28 19 -45 10 -17 26 -57 36
-90 17 -60 65 -154 118 -232 31 -47 144 -162 158 -162 5 0 17 -8 28 -19 29
-29 179 -81 276 -96 69 -11 138 -18 195 -20 81 -3 75 -1 78 -28 2 -31 -72
-123 -154 -191 -77 -63 -119 -86 -171 -91 -54 -5 -63 -24 -60 -125 2 -77 5
-91 31 -131 40 -60 81 -99 149 -143 31 -20 57 -41 57 -47 0 -20 -51 -89 -66
-89 -19 0 -90 -73 -111 -115 -8 -16 -33 -54 -55 -84 -22 -29 -40 -64 -40 -77
-1 -13 13 -40 29 -61 16 -21 32 -46 36 -55 3 -9 14 -17 24 -17 10 -1 41 -3 68
-6 103 -9 191 -3 277 20 85 23 87 23 93 4 7 -22 4 -29 -47 -90 -21 -25 -38
-50 -38 -56 0 -6 -9 -37 -19 -70 -19 -58 -21 -131 -8 -198 4 -16 11 -63 16
-104 9 -71 23 -97 46 -83 5 3 19 8 30 9 26 5 126 52 146 69 9 8 30 16 46 18
39 5 187 79 235 117 20 16 39 29 42 29 7 0 56 -96 56 -109 0 -5 5 -22 12 -38
6 -15 12 -34 14 -41 5 -26 46 -102 55 -102 5 0 9 -6 9 -14 0 -27 154 -206 178
-206 6 0 12 -4 12 -9 0 -12 59 -56 86 -65 18 -6 25 2 48 56 15 35 31 65 35 68
10 7 53 69 69 100 24 44 82 214 89 255 3 22 9 50 14 63 5 13 9 41 9 63 0 22 7
56 15 76 18 43 19 139 1 213 -13 55 -14 125 -3 155 10 25 36 17 43 -12 9 -43
38 -113 47 -113 4 0 7 -6 7 -14 0 -18 104 -123 261 -262 9 -8 19 -14 23 -14 4
0 26 -13 49 -29 23 -17 67 -37 97 -46 30 -9 82 -29 116 -46 80 -38 94 -38 96
4 0 17 2 37 3 42 4 21 18 130 21 159 1 17 -2 49 -8 71 -5 22 -12 55 -14 74 -6
49 -34 127 -65 186 -15 28 -36 83 -48 123 -17 56 -29 77 -56 97 -18 15 -60 61
-94 104 -58 76 -59 78 -50 117 6 21 13 49 16 62 l5 23 23 -28 c12 -15 43 -53
67 -83 58 -72 147 -144 226 -182 116 -55 162 -63 347 -62 130 0 145 2 210 29
96 39 167 85 236 156 58 59 126 149 113 149 -3 0 0 7 7 17 11 12 14 52 12 166
-2 205 -6 228 -54 283 -21 25 -39 49 -39 55 0 5 0 12 0 17 0 4 17 7 38 7 50 1
139 24 152 39 5 7 18 39 28 71 16 50 17 62 6 84 -8 16 -10 30 -4 41 5 10 7 20
4 23 -4 3 2 6 12 6 87 2 186 63 190 117 1 16 3 34 3 41 1 16 45 63 59 63 23 0
112 97 112 122 0 29 -42 72 -127 126 -49 31 -71 39 -100 37 -41 -2 -121 -14
-139 -20 -6 -2 -18 5 -27 16 -9 10 -12 19 -6 19 5 0 8 4 4 9 -3 5 -1 12 4 15
26 16 85 146 97 213 8 45 34 92 70 126 19 17 34 41 34 53 0 19 -10 25 -54 38
-64 19 -164 25 -223 14 -53 -9 -70 -3 -75 27 -6 31 -2 37 52 66 25 13 47 26
50 30 3 3 21 15 40 26 75 46 167 154 221 258 89 173 92 186 92 500 0 238 0
240 -44 365 -42 122 -62 134 -169 105 -30 -8 -86 -22 -124 -30 -70 -15 -132
-45 -177 -87 -22 -21 -56 -39 -205 -110 -12 -6 -27 -21 -33 -34 -11 -24 -17
-27 -61 -25 -35 2 -42 -5 -80 -74 -43 -78 -67 -108 -75 -95 -3 6 -11 8 -16 5
-5 -4 -9 34 -10 92 -1 54 -2 103 -3 108 -1 6 -6 33 -10 60 -17 104 -67 246
-101 284 -18 20 -41 56 -52 81 -27 62 -124 154 -207 198 -38 21 -79 43 -91 50
-13 6 -47 17 -76 22 -28 6 -66 17 -82 25 -37 18 -66 19 -72 3z m-715 -1229 c0
-3 -11 -11 -24 -17 -19 -8 -25 -8 -30 3 -3 8 0 16 7 18 17 6 47 4 47 -4z
m1120 -1632 c0 8 12 5 34 -8 28 -16 34 -26 34 -50 -1 -16 -6 -29 -13 -29 -13
0 -43 33 -62 67 -15 27 -17 45 -3 23 6 -9 10 -10 10 -3z m-1167 -161 c-3 -5
-1 -6 5 -2 7 4 12 3 12 -2 0 -11 103 -62 127 -62 10 0 28 6 40 13 12 6 36 20
55 31 19 10 59 20 92 21 36 2 63 9 67 17 24 39 26 40 48 29 11 -6 20 -15 19
-19 -1 -4 18 -45 44 -92 25 -47 66 -123 91 -170 24 -47 65 -124 91 -172 49
-92 55 -114 31 -105 -33 13 -160 -40 -215 -90 -22 -20 -50 -31 -50 -18 0 2 -7
30 -16 62 -8 32 -17 68 -20 80 -2 12 -9 35 -15 50 -6 16 -10 30 -9 31 5 9 -44
54 -68 63 -15 6 -58 12 -95 14 -121 7 -155 21 -227 98 -34 37 -42 69 -45 182
-2 95 2 106 26 74 9 -13 15 -28 12 -33z"/>
</g>
</svg>
